<mxfile host="app.diagrams.net" agent="Mozilla/5.0 (Windows NT 10.0; Win64; x64) AppleWebKit/537.36 (KHTML, like Gecko) Chrome/129.0.0.0 Safari/537.36" version="24.7.17" pages="5">
  <diagram name="Página-1" id="JJND47ryxRuk7SEoczJW">
    <mxGraphModel dx="1618" dy="915" grid="1" gridSize="10" guides="1" tooltips="1" connect="1" arrows="1" fold="1" page="1" pageScale="1" pageWidth="827" pageHeight="1169" math="0" shadow="0">
      <root>
        <mxCell id="0" />
        <mxCell id="1" parent="0" />
        <mxCell id="jVGeWLlEwjwIORV5Nf_d-22" value="" style="rounded=0;whiteSpace=wrap;html=1;" vertex="1" parent="1">
          <mxGeometry x="190" y="210" width="510" height="630" as="geometry" />
        </mxCell>
        <mxCell id="jVGeWLlEwjwIORV5Nf_d-1" value="Admin" style="shape=umlActor;verticalLabelPosition=bottom;verticalAlign=top;html=1;" vertex="1" parent="1">
          <mxGeometry x="60" y="410" width="30" height="60" as="geometry" />
        </mxCell>
        <mxCell id="jVGeWLlEwjwIORV5Nf_d-3" value="crear cliente" style="ellipse;whiteSpace=wrap;html=1;" vertex="1" parent="1">
          <mxGeometry x="250" y="280" width="140" height="70" as="geometry" />
        </mxCell>
        <mxCell id="jVGeWLlEwjwIORV5Nf_d-6" value="actualizar cliente" style="ellipse;whiteSpace=wrap;html=1;" vertex="1" parent="1">
          <mxGeometry x="250" y="390" width="140" height="70" as="geometry" />
        </mxCell>
        <mxCell id="jVGeWLlEwjwIORV5Nf_d-7" value="Listar clientes" style="ellipse;whiteSpace=wrap;html=1;" vertex="1" parent="1">
          <mxGeometry x="250" y="490" width="140" height="70" as="geometry" />
        </mxCell>
        <mxCell id="jVGeWLlEwjwIORV5Nf_d-8" value="eliminar cliente" style="ellipse;whiteSpace=wrap;html=1;" vertex="1" parent="1">
          <mxGeometry x="240" y="600" width="140" height="70" as="geometry" />
        </mxCell>
        <mxCell id="jVGeWLlEwjwIORV5Nf_d-9" value="buscar cliente" style="ellipse;whiteSpace=wrap;html=1;" vertex="1" parent="1">
          <mxGeometry x="240" y="720" width="140" height="70" as="geometry" />
        </mxCell>
        <mxCell id="jVGeWLlEwjwIORV5Nf_d-12" value="" style="endArrow=classic;html=1;rounded=0;" edge="1" parent="1" target="jVGeWLlEwjwIORV5Nf_d-3">
          <mxGeometry width="50" height="50" relative="1" as="geometry">
            <mxPoint x="110" y="440" as="sourcePoint" />
            <mxPoint x="160" y="390" as="targetPoint" />
          </mxGeometry>
        </mxCell>
        <mxCell id="jVGeWLlEwjwIORV5Nf_d-13" value="" style="endArrow=classic;html=1;rounded=0;entryX=0;entryY=0.5;entryDx=0;entryDy=0;" edge="1" parent="1" target="jVGeWLlEwjwIORV5Nf_d-6">
          <mxGeometry width="50" height="50" relative="1" as="geometry">
            <mxPoint x="120" y="450" as="sourcePoint" />
            <mxPoint x="190" y="430" as="targetPoint" />
          </mxGeometry>
        </mxCell>
        <mxCell id="jVGeWLlEwjwIORV5Nf_d-14" value="" style="endArrow=classic;html=1;rounded=0;entryX=0;entryY=0.5;entryDx=0;entryDy=0;" edge="1" parent="1" target="jVGeWLlEwjwIORV5Nf_d-7">
          <mxGeometry width="50" height="50" relative="1" as="geometry">
            <mxPoint x="120" y="470" as="sourcePoint" />
            <mxPoint x="410" y="500" as="targetPoint" />
          </mxGeometry>
        </mxCell>
        <mxCell id="jVGeWLlEwjwIORV5Nf_d-15" value="" style="endArrow=classic;html=1;rounded=0;entryX=0;entryY=0.5;entryDx=0;entryDy=0;" edge="1" parent="1">
          <mxGeometry width="50" height="50" relative="1" as="geometry">
            <mxPoint x="110" y="490" as="sourcePoint" />
            <mxPoint x="240" y="615" as="targetPoint" />
          </mxGeometry>
        </mxCell>
        <mxCell id="jVGeWLlEwjwIORV5Nf_d-16" value="" style="endArrow=classic;html=1;rounded=0;" edge="1" parent="1">
          <mxGeometry width="50" height="50" relative="1" as="geometry">
            <mxPoint x="90" y="520" as="sourcePoint" />
            <mxPoint x="230" y="720" as="targetPoint" />
          </mxGeometry>
        </mxCell>
        <mxCell id="jVGeWLlEwjwIORV5Nf_d-17" value="DNI Unico" style="ellipse;whiteSpace=wrap;html=1;" vertex="1" parent="1">
          <mxGeometry x="540" y="350" width="140" height="70" as="geometry" />
        </mxCell>
        <mxCell id="jVGeWLlEwjwIORV5Nf_d-18" value="verificar cuenta activa" style="ellipse;whiteSpace=wrap;html=1;" vertex="1" parent="1">
          <mxGeometry x="520" y="600" width="140" height="70" as="geometry" />
        </mxCell>
        <mxCell id="jVGeWLlEwjwIORV5Nf_d-19" value="include" style="endArrow=open;endSize=12;dashed=1;html=1;rounded=0;exitX=0;exitY=0.5;exitDx=0;exitDy=0;entryX=0.979;entryY=0.686;entryDx=0;entryDy=0;entryPerimeter=0;" edge="1" parent="1" source="jVGeWLlEwjwIORV5Nf_d-17" target="jVGeWLlEwjwIORV5Nf_d-3">
          <mxGeometry width="160" relative="1" as="geometry">
            <mxPoint x="390" y="490" as="sourcePoint" />
            <mxPoint x="500" y="310" as="targetPoint" />
          </mxGeometry>
        </mxCell>
        <mxCell id="jVGeWLlEwjwIORV5Nf_d-20" value="Extends" style="endArrow=block;endSize=16;endFill=0;html=1;rounded=0;exitX=1;exitY=0.5;exitDx=0;exitDy=0;" edge="1" parent="1" source="jVGeWLlEwjwIORV5Nf_d-8">
          <mxGeometry x="-0.1241" y="-10" width="160" relative="1" as="geometry">
            <mxPoint x="350" y="520" as="sourcePoint" />
            <mxPoint x="520" y="635" as="targetPoint" />
            <Array as="points" />
            <mxPoint x="-1" as="offset" />
          </mxGeometry>
        </mxCell>
        <mxCell id="7CqDRYXJRWSPvUIqKJ70-1" value="Diagrama de Casos de uso Cliente" style="text;html=1;align=center;verticalAlign=middle;whiteSpace=wrap;rounded=0;" vertex="1" parent="1">
          <mxGeometry x="310" y="120" width="240" height="30" as="geometry" />
        </mxCell>
      </root>
    </mxGraphModel>
  </diagram>
  <diagram id="r7BqGXwigrnfCIrTchR6" name="Página-2">
    <mxGraphModel dx="1039" dy="1097" grid="1" gridSize="10" guides="1" tooltips="1" connect="1" arrows="1" fold="1" page="1" pageScale="1" pageWidth="827" pageHeight="1169" math="0" shadow="0">
      <root>
        <mxCell id="0" />
        <mxCell id="1" parent="0" />
        <mxCell id="PrA5iwuuBUSGuYn_C9DC-1" value="" style="rounded=0;whiteSpace=wrap;html=1;" parent="1" vertex="1">
          <mxGeometry x="140" y="220" width="510" height="630" as="geometry" />
        </mxCell>
        <mxCell id="PrA5iwuuBUSGuYn_C9DC-2" value="Admin" style="shape=umlActor;verticalLabelPosition=bottom;verticalAlign=top;html=1;" parent="1" vertex="1">
          <mxGeometry x="60" y="450" width="30" height="60" as="geometry" />
        </mxCell>
        <mxCell id="PrA5iwuuBUSGuYn_C9DC-3" value="crear cuenta" style="ellipse;whiteSpace=wrap;html=1;" parent="1" vertex="1">
          <mxGeometry x="250" y="260" width="140" height="70" as="geometry" />
        </mxCell>
        <mxCell id="PrA5iwuuBUSGuYn_C9DC-4" value="depositar" style="ellipse;whiteSpace=wrap;html=1;" parent="1" vertex="1">
          <mxGeometry x="260" y="380" width="140" height="70" as="geometry" />
        </mxCell>
        <mxCell id="PrA5iwuuBUSGuYn_C9DC-5" value="Listar cuentas" style="ellipse;whiteSpace=wrap;html=1;" parent="1" vertex="1">
          <mxGeometry x="250" y="564.5" width="140" height="70" as="geometry" />
        </mxCell>
        <mxCell id="PrA5iwuuBUSGuYn_C9DC-6" value="eliminar cuenta" style="ellipse;whiteSpace=wrap;html=1;" parent="1" vertex="1">
          <mxGeometry x="240" y="670" width="140" height="70" as="geometry" />
        </mxCell>
        <mxCell id="PrA5iwuuBUSGuYn_C9DC-7" value="buscar cuenta" style="ellipse;whiteSpace=wrap;html=1;" parent="1" vertex="1">
          <mxGeometry x="240" y="760" width="140" height="70" as="geometry" />
        </mxCell>
        <mxCell id="PrA5iwuuBUSGuYn_C9DC-8" value="" style="endArrow=classic;html=1;rounded=0;" parent="1" target="PrA5iwuuBUSGuYn_C9DC-3" edge="1">
          <mxGeometry width="50" height="50" relative="1" as="geometry">
            <mxPoint x="110" y="460" as="sourcePoint" />
            <mxPoint x="160" y="410" as="targetPoint" />
          </mxGeometry>
        </mxCell>
        <mxCell id="PrA5iwuuBUSGuYn_C9DC-10" value="" style="endArrow=classic;html=1;rounded=0;entryX=0;entryY=0.5;entryDx=0;entryDy=0;" parent="1" target="PrA5iwuuBUSGuYn_C9DC-5" edge="1">
          <mxGeometry width="50" height="50" relative="1" as="geometry">
            <mxPoint x="120" y="490" as="sourcePoint" />
            <mxPoint x="410" y="520" as="targetPoint" />
          </mxGeometry>
        </mxCell>
        <mxCell id="PrA5iwuuBUSGuYn_C9DC-11" value="" style="endArrow=classic;html=1;rounded=0;entryX=0;entryY=0.5;entryDx=0;entryDy=0;" parent="1" target="PrA5iwuuBUSGuYn_C9DC-6" edge="1">
          <mxGeometry width="50" height="50" relative="1" as="geometry">
            <mxPoint x="110" y="510" as="sourcePoint" />
            <mxPoint x="240" y="635" as="targetPoint" />
          </mxGeometry>
        </mxCell>
        <mxCell id="PrA5iwuuBUSGuYn_C9DC-12" value="" style="endArrow=classic;html=1;rounded=0;entryX=0;entryY=0.5;entryDx=0;entryDy=0;" parent="1" target="PrA5iwuuBUSGuYn_C9DC-7" edge="1">
          <mxGeometry width="50" height="50" relative="1" as="geometry">
            <mxPoint x="100" y="520" as="sourcePoint" />
            <mxPoint x="310" y="760" as="targetPoint" />
          </mxGeometry>
        </mxCell>
        <mxCell id="PrA5iwuuBUSGuYn_C9DC-13" value="validar Saldo" style="ellipse;whiteSpace=wrap;html=1;" parent="1" vertex="1">
          <mxGeometry x="470" y="230" width="140" height="70" as="geometry" />
        </mxCell>
        <mxCell id="PrA5iwuuBUSGuYn_C9DC-17" value="retirar" style="ellipse;whiteSpace=wrap;html=1;" parent="1" vertex="1">
          <mxGeometry x="260" y="470" width="140" height="70" as="geometry" />
        </mxCell>
        <mxCell id="PrA5iwuuBUSGuYn_C9DC-19" value="Cliente" style="shape=umlActor;verticalLabelPosition=bottom;verticalAlign=top;html=1;" parent="1" vertex="1">
          <mxGeometry x="720" y="440" width="30" height="60" as="geometry" />
        </mxCell>
        <mxCell id="PrA5iwuuBUSGuYn_C9DC-20" value="" style="endArrow=classic;html=1;rounded=0;entryX=0.964;entryY=0.643;entryDx=0;entryDy=0;entryPerimeter=0;" parent="1" target="PrA5iwuuBUSGuYn_C9DC-4" edge="1">
          <mxGeometry width="50" height="50" relative="1" as="geometry">
            <mxPoint x="690" y="470" as="sourcePoint" />
            <mxPoint x="322" y="350.47" as="targetPoint" />
          </mxGeometry>
        </mxCell>
        <mxCell id="PrA5iwuuBUSGuYn_C9DC-21" value="" style="endArrow=classic;html=1;rounded=0;entryX=1;entryY=0.5;entryDx=0;entryDy=0;" parent="1" target="PrA5iwuuBUSGuYn_C9DC-17" edge="1">
          <mxGeometry width="50" height="50" relative="1" as="geometry">
            <mxPoint x="690" y="480" as="sourcePoint" />
            <mxPoint x="400.04" y="465" as="targetPoint" />
          </mxGeometry>
        </mxCell>
        <mxCell id="PrA5iwuuBUSGuYn_C9DC-22" value="Verificar Existencia de Cliente" style="ellipse;whiteSpace=wrap;html=1;" parent="1" vertex="1">
          <mxGeometry x="480" y="310" width="130" height="50" as="geometry" />
        </mxCell>
        <mxCell id="PrA5iwuuBUSGuYn_C9DC-24" value="include" style="endArrow=open;endSize=12;dashed=1;html=1;rounded=0;exitX=0;exitY=0.5;exitDx=0;exitDy=0;" parent="1" source="PrA5iwuuBUSGuYn_C9DC-13" target="PrA5iwuuBUSGuYn_C9DC-3" edge="1">
          <mxGeometry width="160" relative="1" as="geometry">
            <mxPoint x="470" y="265" as="sourcePoint" />
            <mxPoint x="387" y="308" as="targetPoint" />
            <Array as="points" />
          </mxGeometry>
        </mxCell>
        <mxCell id="PrA5iwuuBUSGuYn_C9DC-26" value="include" style="endArrow=open;endSize=12;dashed=1;html=1;rounded=0;entryX=0.979;entryY=0.686;entryDx=0;entryDy=0;entryPerimeter=0;exitX=0.021;exitY=0.414;exitDx=0;exitDy=0;exitPerimeter=0;" parent="1" source="PrA5iwuuBUSGuYn_C9DC-22" edge="1">
          <mxGeometry width="160" relative="1" as="geometry">
            <mxPoint x="463.29122218311795" y="313.8107095116459" as="sourcePoint" />
            <mxPoint x="380" y="310" as="targetPoint" />
            <Array as="points" />
          </mxGeometry>
        </mxCell>
        <mxCell id="PrA5iwuuBUSGuYn_C9DC-29" value="" style="endArrow=classic;html=1;rounded=0;entryX=0.451;entryY=0.175;entryDx=0;entryDy=0;entryPerimeter=0;" parent="1" target="PrA5iwuuBUSGuYn_C9DC-1" edge="1">
          <mxGeometry width="50" height="50" relative="1" as="geometry">
            <mxPoint x="690" y="450" as="sourcePoint" />
            <mxPoint x="440" y="540" as="targetPoint" />
          </mxGeometry>
        </mxCell>
        <mxCell id="PrA5iwuuBUSGuYn_C9DC-30" value="" style="endArrow=classic;html=1;rounded=0;entryX=1;entryY=0.5;entryDx=0;entryDy=0;" parent="1" target="PrA5iwuuBUSGuYn_C9DC-6" edge="1">
          <mxGeometry width="50" height="50" relative="1" as="geometry">
            <mxPoint x="700" y="492.5" as="sourcePoint" />
            <mxPoint x="410" y="517.5" as="targetPoint" />
          </mxGeometry>
        </mxCell>
        <mxCell id="JUxqp2XYGGC90km-0WTp-1" value="&lt;b&gt;&lt;font style=&quot;font-size: 16px;&quot;&gt;Diagrama de Casos de uso Cuenta&lt;/font&gt;&lt;/b&gt;" style="text;html=1;align=center;verticalAlign=middle;whiteSpace=wrap;rounded=0;" parent="1" vertex="1">
          <mxGeometry x="280" y="120" width="280" height="30" as="geometry" />
        </mxCell>
      </root>
    </mxGraphModel>
  </diagram>
  <diagram id="4efFZROwu1Ubykkk50Lz" name="Página-3">
    <mxGraphModel dx="1039" dy="1097" grid="1" gridSize="10" guides="1" tooltips="1" connect="1" arrows="1" fold="1" page="1" pageScale="1" pageWidth="827" pageHeight="1169" math="0" shadow="0">
      <root>
        <mxCell id="0" />
        <mxCell id="1" parent="0" />
        <mxCell id="VhfadxdiQpAoVMF1ruQm-2" value="Crear Cliente&lt;br&gt;(nombre, apellido,dni,correo)" style="html=1;verticalAlign=bottom;endArrow=block;curved=0;rounded=0;entryX=0;entryY=0;entryDx=0;entryDy=5;" parent="1" source="VhfadxdiQpAoVMF1ruQm-4" target="VhfadxdiQpAoVMF1ruQm-1" edge="1">
          <mxGeometry x="-0.0252" y="15" relative="1" as="geometry">
            <mxPoint x="210" y="380" as="sourcePoint" />
            <mxPoint as="offset" />
          </mxGeometry>
        </mxCell>
        <mxCell id="VhfadxdiQpAoVMF1ruQm-3" value="cliente creado" style="html=1;verticalAlign=bottom;endArrow=open;dashed=1;endSize=8;curved=0;rounded=0;exitX=0;exitY=1;exitDx=0;exitDy=-5;" parent="1" source="VhfadxdiQpAoVMF1ruQm-1" target="VhfadxdiQpAoVMF1ruQm-4" edge="1">
          <mxGeometry relative="1" as="geometry">
            <mxPoint x="210" y="450" as="targetPoint" />
          </mxGeometry>
        </mxCell>
        <mxCell id="VhfadxdiQpAoVMF1ruQm-4" value="" style="shape=umlLifeline;perimeter=lifelinePerimeter;whiteSpace=wrap;html=1;container=1;dropTarget=0;collapsible=0;recursiveResize=0;outlineConnect=0;portConstraint=eastwest;newEdgeStyle={&quot;curved&quot;:0,&quot;rounded&quot;:0};participant=umlActor;" parent="1" vertex="1">
          <mxGeometry x="170" y="240" width="20" height="590" as="geometry" />
        </mxCell>
        <mxCell id="VhfadxdiQpAoVMF1ruQm-10" value="Microservicio Cliente" style="shape=umlLifeline;perimeter=lifelinePerimeter;whiteSpace=wrap;html=1;container=1;dropTarget=0;collapsible=0;recursiveResize=0;outlineConnect=0;portConstraint=eastwest;newEdgeStyle={&quot;edgeStyle&quot;:&quot;elbowEdgeStyle&quot;,&quot;elbow&quot;:&quot;vertical&quot;,&quot;curved&quot;:0,&quot;rounded&quot;:0};" parent="1" vertex="1">
          <mxGeometry x="320" y="240" width="100" height="590" as="geometry" />
        </mxCell>
        <mxCell id="VhfadxdiQpAoVMF1ruQm-27" value="" style="html=1;points=[[0,0,0,0,5],[0,1,0,0,-5],[1,0,0,0,5],[1,1,0,0,-5]];perimeter=orthogonalPerimeter;outlineConnect=0;targetShapes=umlLifeline;portConstraint=eastwest;newEdgeStyle={&quot;curved&quot;:0,&quot;rounded&quot;:0};" parent="VhfadxdiQpAoVMF1ruQm-10" vertex="1">
          <mxGeometry x="45" y="410" width="10" height="40" as="geometry" />
        </mxCell>
        <mxCell id="VhfadxdiQpAoVMF1ruQm-1" value="" style="html=1;points=[[0,0,0,0,5],[0,1,0,0,-5],[1,0,0,0,5],[1,1,0,0,-5]];perimeter=orthogonalPerimeter;outlineConnect=0;targetShapes=umlLifeline;portConstraint=eastwest;newEdgeStyle={&quot;curved&quot;:0,&quot;rounded&quot;:0};" parent="VhfadxdiQpAoVMF1ruQm-10" vertex="1">
          <mxGeometry x="45" y="120" width="10" height="185" as="geometry" />
        </mxCell>
        <mxCell id="VhfadxdiQpAoVMF1ruQm-11" value="Microservico&lt;br&gt;Cuenta" style="shape=umlLifeline;perimeter=lifelinePerimeter;whiteSpace=wrap;html=1;container=1;dropTarget=0;collapsible=0;recursiveResize=0;outlineConnect=0;portConstraint=eastwest;newEdgeStyle={&quot;edgeStyle&quot;:&quot;elbowEdgeStyle&quot;,&quot;elbow&quot;:&quot;vertical&quot;,&quot;curved&quot;:0,&quot;rounded&quot;:0};" parent="1" vertex="1">
          <mxGeometry x="530" y="240" width="100" height="590" as="geometry" />
        </mxCell>
        <mxCell id="VhfadxdiQpAoVMF1ruQm-18" value="" style="html=1;points=[[0,0,0,0,5],[0,1,0,0,-5],[1,0,0,0,5],[1,1,0,0,-5]];perimeter=orthogonalPerimeter;outlineConnect=0;targetShapes=umlLifeline;portConstraint=eastwest;newEdgeStyle={&quot;curved&quot;:0,&quot;rounded&quot;:0};" parent="VhfadxdiQpAoVMF1ruQm-11" vertex="1">
          <mxGeometry x="45" y="370" width="10" height="200" as="geometry" />
        </mxCell>
        <mxCell id="VhfadxdiQpAoVMF1ruQm-13" value="valida DNI" style="html=1;align=left;spacingLeft=2;endArrow=block;rounded=0;edgeStyle=orthogonalEdgeStyle;curved=0;rounded=0;" parent="1" source="VhfadxdiQpAoVMF1ruQm-1" edge="1">
          <mxGeometry x="0.1459" y="10" relative="1" as="geometry">
            <mxPoint x="434" y="430" as="sourcePoint" />
            <Array as="points">
              <mxPoint x="430" y="430" />
              <mxPoint x="430" y="460" />
            </Array>
            <mxPoint x="380" y="460" as="targetPoint" />
            <mxPoint y="1" as="offset" />
          </mxGeometry>
        </mxCell>
        <mxCell id="VhfadxdiQpAoVMF1ruQm-14" value="Guarda Cliente" style="html=1;align=left;spacingLeft=2;endArrow=block;rounded=0;edgeStyle=orthogonalEdgeStyle;curved=0;rounded=0;" parent="1" source="VhfadxdiQpAoVMF1ruQm-10" target="VhfadxdiQpAoVMF1ruQm-10" edge="1">
          <mxGeometry relative="1" as="geometry">
            <mxPoint x="390" y="490" as="sourcePoint" />
            <Array as="points">
              <mxPoint x="430" y="490" />
              <mxPoint x="430" y="520" />
            </Array>
            <mxPoint x="390" y="520" as="targetPoint" />
          </mxGeometry>
        </mxCell>
        <mxCell id="VhfadxdiQpAoVMF1ruQm-16" value="Crear Cuenta&lt;br&gt;(tipo cuenta , idCliente)" style="html=1;verticalAlign=bottom;endArrow=block;curved=0;rounded=0;" parent="1" target="VhfadxdiQpAoVMF1ruQm-11" edge="1">
          <mxGeometry x="0.5525" y="20" relative="1" as="geometry">
            <mxPoint x="179.5" y="620" as="sourcePoint" />
            <mxPoint x="550" y="620" as="targetPoint" />
            <Array as="points">
              <mxPoint x="420" y="620" />
            </Array>
            <mxPoint as="offset" />
          </mxGeometry>
        </mxCell>
        <mxCell id="VhfadxdiQpAoVMF1ruQm-17" value="cuenta creado" style="html=1;verticalAlign=bottom;endArrow=open;dashed=1;endSize=8;curved=0;rounded=0;exitX=0;exitY=1;exitDx=0;exitDy=-5;" parent="1" source="VhfadxdiQpAoVMF1ruQm-18" target="VhfadxdiQpAoVMF1ruQm-4" edge="1">
          <mxGeometry relative="1" as="geometry">
            <mxPoint x="375" y="760" as="targetPoint" />
          </mxGeometry>
        </mxCell>
        <mxCell id="VhfadxdiQpAoVMF1ruQm-22" value="" style="endArrow=classic;html=1;rounded=0;" parent="1" target="VhfadxdiQpAoVMF1ruQm-27" edge="1">
          <mxGeometry width="50" height="50" relative="1" as="geometry">
            <mxPoint x="579.5" y="650" as="sourcePoint" />
            <mxPoint x="380" y="650" as="targetPoint" />
          </mxGeometry>
        </mxCell>
        <mxCell id="VhfadxdiQpAoVMF1ruQm-20" value="crear cuenta" style="html=1;align=left;spacingLeft=2;endArrow=block;rounded=0;edgeStyle=orthogonalEdgeStyle;curved=0;rounded=0;" parent="1" edge="1">
          <mxGeometry relative="1" as="geometry">
            <mxPoint x="575" y="750" as="sourcePoint" />
            <Array as="points">
              <mxPoint x="635" y="750" />
              <mxPoint x="635" y="780" />
            </Array>
            <mxPoint x="590" y="780" as="targetPoint" />
          </mxGeometry>
        </mxCell>
        <mxCell id="VhfadxdiQpAoVMF1ruQm-19" value="valida saldo" style="html=1;align=left;spacingLeft=2;endArrow=block;rounded=0;edgeStyle=orthogonalEdgeStyle;curved=0;rounded=0;" parent="1" edge="1">
          <mxGeometry x="0.1459" y="10" relative="1" as="geometry">
            <mxPoint x="585" y="700" as="sourcePoint" />
            <Array as="points">
              <mxPoint x="640" y="700" />
              <mxPoint x="640" y="730" />
            </Array>
            <mxPoint x="585" y="730" as="targetPoint" />
            <mxPoint y="1" as="offset" />
          </mxGeometry>
        </mxCell>
        <mxCell id="VhfadxdiQpAoVMF1ruQm-25" value="&lt;div style=&quot;text-align: center;&quot;&gt;&lt;span style=&quot;font-size: 11px; text-wrap: nowrap; background-color: rgb(255, 255, 255);&quot;&gt;consultar cliente&lt;/span&gt;&lt;/div&gt;" style="text;whiteSpace=wrap;html=1;" parent="1" vertex="1">
          <mxGeometry x="410" y="630" width="150" height="50" as="geometry" />
        </mxCell>
        <mxCell id="VhfadxdiQpAoVMF1ruQm-26" value="cliente encontrado" style="html=1;verticalAlign=bottom;endArrow=open;dashed=1;endSize=8;curved=0;rounded=0;" parent="1" edge="1">
          <mxGeometry relative="1" as="geometry">
            <mxPoint x="574.5" y="690" as="targetPoint" />
            <mxPoint x="375" y="690" as="sourcePoint" />
          </mxGeometry>
        </mxCell>
        <mxCell id="O4UNLzQ1h3cY1qPi4fJY-2" value="&lt;b style=&quot;font-size: 16px;&quot;&gt;Diagrama de secuencia de microservicios&amp;nbsp;&lt;br&gt;crear cuenta y crear cliente&lt;/b&gt;" style="text;html=1;align=center;verticalAlign=middle;whiteSpace=wrap;rounded=0;" parent="1" vertex="1">
          <mxGeometry x="290" y="80" width="340" height="30" as="geometry" />
        </mxCell>
      </root>
    </mxGraphModel>
  </diagram>
  <diagram id="Xsvcchnw9_uq8oI8SXX4" name="Página-4">
    <mxGraphModel dx="1039" dy="1097" grid="1" gridSize="10" guides="1" tooltips="1" connect="1" arrows="1" fold="1" page="1" pageScale="1" pageWidth="827" pageHeight="1169" math="0" shadow="0">
      <root>
        <mxCell id="0" />
        <mxCell id="1" parent="0" />
        <mxCell id="838fx73Nxj_K65e7o_FF-1" value="realizar deposito" style="html=1;verticalAlign=bottom;endArrow=block;curved=0;rounded=0;entryX=0;entryY=0;entryDx=0;entryDy=5;" parent="1" source="838fx73Nxj_K65e7o_FF-3" target="838fx73Nxj_K65e7o_FF-6" edge="1">
          <mxGeometry x="-0.0243" y="5" relative="1" as="geometry">
            <mxPoint x="210" y="320" as="sourcePoint" />
            <mxPoint x="1" as="offset" />
          </mxGeometry>
        </mxCell>
        <mxCell id="838fx73Nxj_K65e7o_FF-2" value="deposito realizado" style="html=1;verticalAlign=bottom;endArrow=open;dashed=1;endSize=8;curved=0;rounded=0;exitX=0;exitY=1;exitDx=0;exitDy=-5;" parent="1" source="838fx73Nxj_K65e7o_FF-6" target="838fx73Nxj_K65e7o_FF-3" edge="1">
          <mxGeometry relative="1" as="geometry">
            <mxPoint x="210" y="390" as="targetPoint" />
          </mxGeometry>
        </mxCell>
        <mxCell id="838fx73Nxj_K65e7o_FF-3" value="" style="shape=umlLifeline;perimeter=lifelinePerimeter;whiteSpace=wrap;html=1;container=1;dropTarget=0;collapsible=0;recursiveResize=0;outlineConnect=0;portConstraint=eastwest;newEdgeStyle={&quot;curved&quot;:0,&quot;rounded&quot;:0};participant=umlActor;" parent="1" vertex="1">
          <mxGeometry x="170" y="180" width="20" height="590" as="geometry" />
        </mxCell>
        <mxCell id="838fx73Nxj_K65e7o_FF-4" value="Microservicio Cuenta" style="shape=umlLifeline;perimeter=lifelinePerimeter;whiteSpace=wrap;html=1;container=1;dropTarget=0;collapsible=0;recursiveResize=0;outlineConnect=0;portConstraint=eastwest;newEdgeStyle={&quot;edgeStyle&quot;:&quot;elbowEdgeStyle&quot;,&quot;elbow&quot;:&quot;vertical&quot;,&quot;curved&quot;:0,&quot;rounded&quot;:0};" parent="1" vertex="1">
          <mxGeometry x="320" y="180" width="100" height="590" as="geometry" />
        </mxCell>
        <mxCell id="838fx73Nxj_K65e7o_FF-5" value="" style="html=1;points=[[0,0,0,0,5],[0,1,0,0,-5],[1,0,0,0,5],[1,1,0,0,-5]];perimeter=orthogonalPerimeter;outlineConnect=0;targetShapes=umlLifeline;portConstraint=eastwest;newEdgeStyle={&quot;curved&quot;:0,&quot;rounded&quot;:0};" parent="838fx73Nxj_K65e7o_FF-4" vertex="1">
          <mxGeometry x="45" y="410" width="10" height="160" as="geometry" />
        </mxCell>
        <mxCell id="838fx73Nxj_K65e7o_FF-6" value="" style="html=1;points=[[0,0,0,0,5],[0,1,0,0,-5],[1,0,0,0,5],[1,1,0,0,-5]];perimeter=orthogonalPerimeter;outlineConnect=0;targetShapes=umlLifeline;portConstraint=eastwest;newEdgeStyle={&quot;curved&quot;:0,&quot;rounded&quot;:0};" parent="838fx73Nxj_K65e7o_FF-4" vertex="1">
          <mxGeometry x="45" y="120" width="10" height="185" as="geometry" />
        </mxCell>
        <mxCell id="838fx73Nxj_K65e7o_FF-9" value="validar cuenta existe" style="html=1;align=left;spacingLeft=2;endArrow=block;rounded=0;edgeStyle=orthogonalEdgeStyle;curved=0;rounded=0;" parent="1" source="838fx73Nxj_K65e7o_FF-6" edge="1">
          <mxGeometry x="0.1459" y="10" relative="1" as="geometry">
            <mxPoint x="434" y="370" as="sourcePoint" />
            <Array as="points">
              <mxPoint x="430" y="370" />
              <mxPoint x="430" y="400" />
            </Array>
            <mxPoint x="380" y="400" as="targetPoint" />
            <mxPoint y="1" as="offset" />
          </mxGeometry>
        </mxCell>
        <mxCell id="838fx73Nxj_K65e7o_FF-10" value="actualiza saldo" style="html=1;align=left;spacingLeft=2;endArrow=block;rounded=0;edgeStyle=orthogonalEdgeStyle;curved=0;rounded=0;" parent="1" source="838fx73Nxj_K65e7o_FF-4" target="838fx73Nxj_K65e7o_FF-4" edge="1">
          <mxGeometry relative="1" as="geometry">
            <mxPoint x="390" y="430" as="sourcePoint" />
            <Array as="points">
              <mxPoint x="430" y="430" />
              <mxPoint x="430" y="460" />
            </Array>
            <mxPoint x="390" y="460" as="targetPoint" />
          </mxGeometry>
        </mxCell>
        <mxCell id="838fx73Nxj_K65e7o_FF-11" value="realizar retiro" style="html=1;verticalAlign=bottom;endArrow=block;curved=0;rounded=0;" parent="1" source="838fx73Nxj_K65e7o_FF-3" target="838fx73Nxj_K65e7o_FF-4" edge="1">
          <mxGeometry x="0.0579" y="10" relative="1" as="geometry">
            <mxPoint x="110" y="560" as="sourcePoint" />
            <mxPoint x="290" y="590" as="targetPoint" />
            <Array as="points">
              <mxPoint x="250" y="590" />
            </Array>
            <mxPoint as="offset" />
          </mxGeometry>
        </mxCell>
        <mxCell id="838fx73Nxj_K65e7o_FF-12" value="retiro realizado" style="html=1;verticalAlign=bottom;endArrow=open;dashed=1;endSize=8;curved=0;rounded=0;exitX=1;exitY=1;exitDx=0;exitDy=-5;exitPerimeter=0;" parent="1" source="838fx73Nxj_K65e7o_FF-5" target="838fx73Nxj_K65e7o_FF-3" edge="1">
          <mxGeometry relative="1" as="geometry">
            <mxPoint x="375" y="700" as="targetPoint" />
            <mxPoint x="480" y="745" as="sourcePoint" />
          </mxGeometry>
        </mxCell>
        <mxCell id="838fx73Nxj_K65e7o_FF-15" value="valida cuenta existe" style="html=1;align=left;spacingLeft=2;endArrow=block;rounded=0;edgeStyle=orthogonalEdgeStyle;curved=0;rounded=0;" parent="1" edge="1">
          <mxGeometry x="0.1459" y="10" relative="1" as="geometry">
            <mxPoint x="375" y="610" as="sourcePoint" />
            <Array as="points">
              <mxPoint x="435" y="610" />
              <mxPoint x="435" y="640" />
            </Array>
            <mxPoint x="380" y="640" as="targetPoint" />
            <mxPoint y="1" as="offset" />
          </mxGeometry>
        </mxCell>
        <mxCell id="8C646UekPU36MIcZ_6eE-2" value="&lt;b style=&quot;font-size: 16px;&quot;&gt;Diagrama de secuencia de microservicios&amp;nbsp;&lt;br&gt;&lt;font style=&quot;font-size: 16px;&quot;&gt;realizar deposito y retiro&lt;/font&gt;&lt;/b&gt;" style="text;html=1;align=center;verticalAlign=middle;whiteSpace=wrap;rounded=0;" parent="1" vertex="1">
          <mxGeometry x="250" y="80" width="340" height="30" as="geometry" />
        </mxCell>
        <mxCell id="838fx73Nxj_K65e7o_FF-14" value="valida tipo de cuenta" style="html=1;align=left;spacingLeft=2;endArrow=block;rounded=0;edgeStyle=orthogonalEdgeStyle;curved=0;rounded=0;exitX=0.5;exitY=0.5;exitDx=0;exitDy=0;exitPerimeter=0;entryX=0.55;entryY=0.883;entryDx=0;entryDy=0;entryPerimeter=0;" parent="1" edge="1">
          <mxGeometry relative="1" as="geometry">
            <mxPoint x="370" y="654.51" as="sourcePoint" />
            <Array as="points">
              <mxPoint x="430" y="654.51" />
              <mxPoint x="430" y="684.51" />
            </Array>
            <mxPoint x="375" y="685.48" as="targetPoint" />
          </mxGeometry>
        </mxCell>
      </root>
    </mxGraphModel>
  </diagram>
  <diagram id="obFxvW_uZaBvJviEp1Dv" name="Página-5">
    <mxGraphModel dx="1039" dy="1097" grid="1" gridSize="10" guides="1" tooltips="1" connect="1" arrows="1" fold="1" page="1" pageScale="1" pageWidth="827" pageHeight="1169" math="0" shadow="0">
      <root>
        <mxCell id="0" />
        <mxCell id="1" parent="0" />
        <mxCell id="e-mLD_BISligyUIOPgUr-4" value="«Componente»&lt;br&gt;&lt;b&gt;Micriservcio Clientes&lt;/b&gt;" style="html=1;dropTarget=0;whiteSpace=wrap;" vertex="1" parent="1">
          <mxGeometry x="70" y="350" width="180" height="90" as="geometry" />
        </mxCell>
        <mxCell id="e-mLD_BISligyUIOPgUr-5" value="" style="shape=module;jettyWidth=8;jettyHeight=4;" vertex="1" parent="e-mLD_BISligyUIOPgUr-4">
          <mxGeometry x="1" width="20" height="20" relative="1" as="geometry">
            <mxPoint x="-27" y="7" as="offset" />
          </mxGeometry>
        </mxCell>
        <mxCell id="e-mLD_BISligyUIOPgUr-6" value="«Componente»&lt;br&gt;&lt;b&gt;Base de Datos Clientes&lt;/b&gt;" style="html=1;dropTarget=0;whiteSpace=wrap;" vertex="1" parent="1">
          <mxGeometry x="70" y="590" width="180" height="90" as="geometry" />
        </mxCell>
        <mxCell id="e-mLD_BISligyUIOPgUr-7" value="" style="shape=module;jettyWidth=8;jettyHeight=4;" vertex="1" parent="e-mLD_BISligyUIOPgUr-6">
          <mxGeometry x="1" width="20" height="20" relative="1" as="geometry">
            <mxPoint x="-27" y="7" as="offset" />
          </mxGeometry>
        </mxCell>
        <mxCell id="e-mLD_BISligyUIOPgUr-8" value="«componente»&lt;br&gt;&lt;b&gt;Base de Datos Cuenta&lt;/b&gt;" style="html=1;dropTarget=0;whiteSpace=wrap;" vertex="1" parent="1">
          <mxGeometry x="610" y="585" width="180" height="90" as="geometry" />
        </mxCell>
        <mxCell id="e-mLD_BISligyUIOPgUr-9" value="" style="shape=module;jettyWidth=8;jettyHeight=4;" vertex="1" parent="e-mLD_BISligyUIOPgUr-8">
          <mxGeometry x="1" width="20" height="20" relative="1" as="geometry">
            <mxPoint x="-27" y="7" as="offset" />
          </mxGeometry>
        </mxCell>
        <mxCell id="e-mLD_BISligyUIOPgUr-10" value="«FeignClient»&lt;br&gt;&lt;b&gt;Comunicacion&lt;/b&gt;" style="html=1;dropTarget=0;whiteSpace=wrap;" vertex="1" parent="1">
          <mxGeometry x="340" y="350" width="180" height="90" as="geometry" />
        </mxCell>
        <mxCell id="e-mLD_BISligyUIOPgUr-11" value="" style="shape=module;jettyWidth=8;jettyHeight=4;" vertex="1" parent="e-mLD_BISligyUIOPgUr-10">
          <mxGeometry x="1" width="20" height="20" relative="1" as="geometry">
            <mxPoint x="-27" y="7" as="offset" />
          </mxGeometry>
        </mxCell>
        <mxCell id="e-mLD_BISligyUIOPgUr-12" value="" style="rounded=0;orthogonalLoop=1;jettySize=auto;html=1;endArrow=halfCircle;endFill=0;endSize=6;strokeWidth=1;sketch=0;exitX=0;exitY=0.5;exitDx=0;exitDy=0;" edge="1" target="e-mLD_BISligyUIOPgUr-14" parent="1" source="e-mLD_BISligyUIOPgUr-10">
          <mxGeometry relative="1" as="geometry">
            <mxPoint x="400" y="565" as="sourcePoint" />
          </mxGeometry>
        </mxCell>
        <mxCell id="e-mLD_BISligyUIOPgUr-13" value="" style="rounded=0;orthogonalLoop=1;jettySize=auto;html=1;endArrow=oval;endFill=0;sketch=0;sourcePerimeterSpacing=0;targetPerimeterSpacing=0;endSize=10;exitX=1;exitY=0.5;exitDx=0;exitDy=0;" edge="1" target="e-mLD_BISligyUIOPgUr-14" parent="1" source="e-mLD_BISligyUIOPgUr-4">
          <mxGeometry relative="1" as="geometry">
            <mxPoint x="360" y="565" as="sourcePoint" />
          </mxGeometry>
        </mxCell>
        <mxCell id="e-mLD_BISligyUIOPgUr-14" value="" style="ellipse;whiteSpace=wrap;html=1;align=center;aspect=fixed;fillColor=none;strokeColor=none;resizable=0;perimeter=centerPerimeter;rotatable=0;allowArrows=0;points=[];outlineConnect=1;" vertex="1" parent="1">
          <mxGeometry x="290" y="390" width="10" height="10" as="geometry" />
        </mxCell>
        <mxCell id="e-mLD_BISligyUIOPgUr-18" value="" style="ellipse;whiteSpace=wrap;html=1;align=center;aspect=fixed;fillColor=none;strokeColor=none;resizable=0;perimeter=centerPerimeter;rotatable=0;allowArrows=0;points=[];outlineConnect=1;" vertex="1" parent="1">
          <mxGeometry x="155" y="550" width="10" height="10" as="geometry" />
        </mxCell>
        <mxCell id="e-mLD_BISligyUIOPgUr-21" value="«Annotation»&lt;br&gt;&lt;b&gt;Micriservcio Clientes&lt;/b&gt;" style="html=1;dropTarget=0;whiteSpace=wrap;" vertex="1" parent="1">
          <mxGeometry x="610" y="350" width="180" height="90" as="geometry" />
        </mxCell>
        <mxCell id="e-mLD_BISligyUIOPgUr-22" value="" style="shape=module;jettyWidth=8;jettyHeight=4;" vertex="1" parent="e-mLD_BISligyUIOPgUr-21">
          <mxGeometry x="1" width="20" height="20" relative="1" as="geometry">
            <mxPoint x="-27" y="7" as="offset" />
          </mxGeometry>
        </mxCell>
        <mxCell id="e-mLD_BISligyUIOPgUr-23" value="" style="ellipse;whiteSpace=wrap;html=1;align=center;aspect=fixed;fillColor=none;strokeColor=none;resizable=0;perimeter=centerPerimeter;rotatable=0;allowArrows=0;points=[];outlineConnect=1;" vertex="1" parent="1">
          <mxGeometry x="290" y="470" width="10" height="10" as="geometry" />
        </mxCell>
        <mxCell id="e-mLD_BISligyUIOPgUr-24" value="" style="rounded=0;orthogonalLoop=1;jettySize=auto;html=1;endArrow=halfCircle;endFill=0;endSize=6;strokeWidth=1;sketch=0;exitX=0;exitY=0.5;exitDx=0;exitDy=0;" edge="1" target="e-mLD_BISligyUIOPgUr-26" parent="1" source="e-mLD_BISligyUIOPgUr-21">
          <mxGeometry relative="1" as="geometry">
            <mxPoint x="550" y="565" as="sourcePoint" />
          </mxGeometry>
        </mxCell>
        <mxCell id="e-mLD_BISligyUIOPgUr-25" value="" style="rounded=0;orthogonalLoop=1;jettySize=auto;html=1;endArrow=oval;endFill=0;sketch=0;sourcePerimeterSpacing=0;targetPerimeterSpacing=0;endSize=10;exitX=1;exitY=0.5;exitDx=0;exitDy=0;" edge="1" target="e-mLD_BISligyUIOPgUr-26" parent="1" source="e-mLD_BISligyUIOPgUr-10">
          <mxGeometry relative="1" as="geometry">
            <mxPoint x="510" y="565" as="sourcePoint" />
          </mxGeometry>
        </mxCell>
        <mxCell id="e-mLD_BISligyUIOPgUr-26" value="" style="ellipse;whiteSpace=wrap;html=1;align=center;aspect=fixed;fillColor=none;strokeColor=none;resizable=0;perimeter=centerPerimeter;rotatable=0;allowArrows=0;points=[];outlineConnect=1;" vertex="1" parent="1">
          <mxGeometry x="555" y="390" width="10" height="10" as="geometry" />
        </mxCell>
        <mxCell id="e-mLD_BISligyUIOPgUr-27" value="" style="html=1;verticalAlign=bottom;endArrow=open;dashed=1;endSize=8;curved=0;rounded=0;exitX=0.5;exitY=1;exitDx=0;exitDy=0;entryX=0.5;entryY=0;entryDx=0;entryDy=0;" edge="1" parent="1" source="e-mLD_BISligyUIOPgUr-21" target="e-mLD_BISligyUIOPgUr-8">
          <mxGeometry relative="1" as="geometry">
            <mxPoint x="690" y="460" as="sourcePoint" />
            <mxPoint x="690" y="580" as="targetPoint" />
          </mxGeometry>
        </mxCell>
        <mxCell id="e-mLD_BISligyUIOPgUr-28" value="" style="html=1;verticalAlign=bottom;endArrow=open;dashed=1;endSize=8;curved=0;rounded=0;exitX=0.5;exitY=1;exitDx=0;exitDy=0;entryX=0.5;entryY=0;entryDx=0;entryDy=0;" edge="1" parent="1" source="e-mLD_BISligyUIOPgUr-4" target="e-mLD_BISligyUIOPgUr-6">
          <mxGeometry relative="1" as="geometry">
            <mxPoint x="289" y="480" as="sourcePoint" />
            <mxPoint x="289" y="630" as="targetPoint" />
          </mxGeometry>
        </mxCell>
        <mxCell id="e-mLD_BISligyUIOPgUr-29" value="&lt;b&gt;&lt;font style=&quot;font-size: 16px;&quot;&gt;Diagrama de componentes&lt;/font&gt;&lt;/b&gt;" style="text;html=1;align=center;verticalAlign=middle;whiteSpace=wrap;rounded=0;" vertex="1" parent="1">
          <mxGeometry x="310" y="170" width="210" height="30" as="geometry" />
        </mxCell>
      </root>
    </mxGraphModel>
  </diagram>
</mxfile>
